<svg height="766" width="720" xmlns="http://www.w3.org/2000/svg">
<rect height="766" fill="#555" width="720"></rect>
<text fill="#7f7" font-family="Courier New" font-size="12" xml:space="preserve">
<tspan x="10" y="26">5 megabytes installed</tspan>
<tspan x="10" y="42"></tspan>
<tspan x="10" y="58">node_modules</tspan>
<tspan x="10" y="74">└─┬ node-microdata-scraper@0.0.4 </tspan>
<tspan x="10" y="90">  ├─┬ cheerio@0.13.1 </tspan>
<tspan x="10" y="106">  │ ├─┬ CSSselect@0.4.1 </tspan>
<tspan x="10" y="122">  │ │ ├── CSSwhat@0.4.7 </tspan>
<tspan x="10" y="138">  │ │ └── domutils@1.4.3 </tspan>
<tspan x="10" y="154">  │ ├── entities@0.5.0 </tspan>
<tspan x="10" y="170">  │ ├─┬ htmlparser2@3.4.0 </tspan>
<tspan x="10" y="186">  │ │ ├── domelementtype@1.3.0 </tspan>
<tspan x="10" y="202">  │ │ ├── domhandler@2.2.1 </tspan>
<tspan x="10" y="218">  │ │ ├── domutils@1.3.0 </tspan>
<tspan x="10" y="234">  │ │ └─┬ readable-stream@1.1.14 </tspan>
<tspan x="10" y="250">  │ │   ├── core-util-is@1.0.2 </tspan>
<tspan x="10" y="266">  │ │   ├── inherits@2.0.3 </tspan>
<tspan x="10" y="282">  │ │   ├── isarray@0.0.1 </tspan>
<tspan x="10" y="298">  │ │   └── string_decoder@0.10.31 </tspan>
<tspan x="10" y="314">  │ └── underscore@1.5.2 </tspan>
<tspan x="10" y="330">  ├─┬ MD5@1.2.2 </tspan>
<tspan x="10" y="346">  │ ├── charenc@0.0.2 </tspan>
<tspan x="10" y="362">  │ └── crypt@0.0.2 </tspan>
<tspan x="10" y="378">  └─┬ request@2.30.0 </tspan>
<tspan x="10" y="394">    ├── aws-sign2@0.5.0 </tspan>
<tspan x="10" y="410">    ├── forever-agent@0.5.2 </tspan>
<tspan x="10" y="426">    ├─┬ form-data@0.1.4 </tspan>
<tspan x="10" y="442">    │ ├── async@0.9.2 </tspan>
<tspan x="10" y="458">    │ └─┬ combined-stream@0.0.7 </tspan>
<tspan x="10" y="474">    │   └── delayed-stream@0.0.5 </tspan>
<tspan x="10" y="490">    ├─┬ hawk@1.0.0 </tspan>
<tspan x="10" y="506">    │ ├── boom@0.4.2 </tspan>
<tspan x="10" y="522">    │ ├── cryptiles@0.2.2 </tspan>
<tspan x="10" y="538">    │ ├── hoek@0.9.1 </tspan>
<tspan x="10" y="554">    │ └── sntp@0.2.4 </tspan>
<tspan x="10" y="570">    ├─┬ http-signature@0.10.1 </tspan>
<tspan x="10" y="586">    │ ├── asn1@0.1.11 </tspan>
<tspan x="10" y="602">    │ ├── assert-plus@0.1.5 </tspan>
<tspan x="10" y="618">    │ └── ctype@0.5.3 </tspan>
<tspan x="10" y="634">    ├── json-stringify-safe@5.0.1 </tspan>
<tspan x="10" y="650">    ├── mime@1.2.11 </tspan>
<tspan x="10" y="666">    ├── node-uuid@1.4.8 </tspan>
<tspan x="10" y="682">    ├── oauth-sign@0.3.0 </tspan>
<tspan x="10" y="698">    ├── qs@0.6.6 </tspan>
<tspan x="10" y="714">    ├─┬ tough-cookie@0.9.15 </tspan>
<tspan x="10" y="730">    │ └── punycode@2.1.0 </tspan>
<tspan x="10" y="746">    └── tunnel-agent@0.3.0</tspan>
</text>
</svg>
